<?xml version="1.0" encoding="utf-8"?>
<!-- Generator: Adobe Illustrator 19.0.0, SVG Export Plug-In . SVG Version: 6.00 Build 0)  -->
<svg version="1.0" id="Layer_1" xmlns="http://www.w3.org/2000/svg" xmlns:xlink="http://www.w3.org/1999/xlink" x="0px" y="0px"
	 width="350px" height="102.7px" viewBox="0 0 350 102.7" style="enable-background:new 0 0 350 102.7;" xml:space="preserve">
<g>
	<g>
		<path d="M32,80.3c-15.7,0-26-10.5-26-26.4c0-16.5,10.4-27.4,26.2-27.4c13.7,0,22.8,7.4,24,19.3H42.4c-1-5.6-4.7-8.8-10.1-8.8
			c-7.6,0-12.2,6.1-12.2,16.6c0,10.2,4.4,16,11.9,16c6,0,9.8-3.6,10.9-10.3h13.6C54.7,72.6,45.6,80.3,32,80.3z"/>
		<path d="M97.1,79c-0.7-1.9-0.8-2.7-1-5c-4.4,4.4-10.4,6.4-16.5,6.4c-11.3,0-18.2-5.8-18.2-15.4c0-13.4,12.2-15,22.3-16.2
			c9.1-1.2,12.5-2,12.5-6.1c0-4.7-3-6.8-9.2-6.8c-6.4,0-9.1,2-10.1,7.8H63.6c0.8-11.4,8.9-17.2,23.7-17.2c10.3,0,22.3,2.4,22.3,16.6
			v22.1c0,4.7-0.1,9.5,1.8,13.9H97.1z M86.1,56.9c-4.9,0.8-10.3,1.4-10.3,7.6c0,4.3,2.9,6.8,7.7,6.8c7.3,0,12.5-4.1,12.5-11.4v-5.7
			C92.7,56.1,89.7,56.3,86.1,56.9z"/>
		<path d="M153.6,79V49.2c0-6.3-1.2-11.1-8.7-11.1c-8.4,0-11.1,6-11.1,13.5V79h-14V28h13.4v7.1c4.1-5.4,9.7-8.5,16.9-8.5
			c10.8,0,17.7,6.4,17.7,18.3V79H153.6z"/>
		<path d="M211,79c-0.7-1.9-0.8-2.7-1-5c-4.4,4.4-10.4,6.4-16.5,6.4c-11.3,0-18.2-5.8-18.2-15.4c0-13.4,12.2-15,22.3-16.2
			c9.1-1.2,12.5-2,12.5-6.1c0-4.7-3-6.8-9.2-6.8c-6.4,0-9.1,2-10.1,7.8h-13.2c0.8-11.4,8.9-17.2,23.7-17.2
			c10.3,0,22.3,2.4,22.3,16.6v22.1c0,4.7-0.1,9.5,1.8,13.9H211z M200.1,56.9c-4.9,0.8-10.3,1.4-10.3,7.6c0,4.3,2.9,6.8,7.7,6.8
			c7.3,0,12.5-4.1,12.5-11.4v-5.7C206.7,56.1,203.6,56.3,200.1,56.9z"/>
		<path d="M247,34.3c3.8-5.2,9.3-7.7,15.8-7.7c13.8,0,22.8,10.8,22.8,27.2c0,16-8.8,26.5-22.2,26.5c-6.4,0-12-2.4-15.7-7.6v24.5h-14
			V28H247V34.3z M247.2,53.6c0,9.9,4.6,15.7,12.3,15.7c7.5,0,12.1-5.8,12.1-15.5c0-10-4.7-15.9-12.2-15.9
			C251.8,37.9,247.2,43.7,247.2,53.6z"/>
		<path d="M317.2,80.5c-15.7,0-26.1-10.7-26.1-26.7c0-15.8,10.8-27.3,25.6-27.3c15.4,0,25.2,11.3,25.2,29.2v1.4h-36.6
			c0.2,8.8,4.5,13.6,12,13.6c5.1,0,8.3-2.3,10.4-7.4h13.5C338,74.3,328.8,80.5,317.2,80.5z M316.8,36.7c-6.2,0-10.6,4.4-11.4,11.5
			h22.4C327.1,41.9,323.8,36.7,316.8,36.7z"/>
	</g>
	<g>
		<path d="M321.1,6.2h15.7l-15.1,14.2h-10L321.1,6.2z"/>
	</g>
</g>
</svg>
